<?xml version="1.0" encoding="utf-8"?>
<!-- Generator: Adobe Illustrator 15.1.0, SVG Export Plug-In . SVG Version: 6.00 Build 0)  -->
<!DOCTYPE svg PUBLIC "-//W3C//DTD SVG 1.1//EN" "http://www.w3.org/Graphics/SVG/1.1/DTD/svg11.dtd">
<svg version="1.1" id="Layer_1" xmlns="http://www.w3.org/2000/svg" xmlns:xlink="http://www.w3.org/1999/xlink" x="0px" y="0px"
	 width="24px" height="24px" viewBox="0 0 24 24" enable-background="new 0 0 24 24" xml:space="preserve">
<path fill="none" d="M0,0h24v24H0V0z"/>
<path fill="#FFFFFF" d="M15.55,5.55L11,1v3.07C7.06,4.56,4,7.92,4,12s3.05,7.439,7,7.93v-2.02C8.16,17.43,6,14.97,6,12
	s2.16-5.43,5-5.91V10L15.55,5.55z M19.93,11c-0.17-1.39-0.72-2.73-1.619-3.89l-1.42,1.42c0.539,0.75,0.879,1.6,1.02,2.47H19.93z
	 M13,17.9v2.02c1.391-0.17,2.74-0.71,3.9-1.609l-1.44-1.44C14.71,17.41,13.87,17.76,13,17.9z M16.891,15.48l1.42,1.41
	c0.899-1.16,1.449-2.5,1.619-3.891h-2.02C17.77,13.87,17.43,14.72,16.891,15.48z"/>
</svg>
